PathFileType	4	(X/Y/Z)	Patient4_TMGait_0pt5_02_left_05.trc.trc
DataRate	CameraRate	NumFrames	NumMarkers	Units	OrigDataRate	OrigDataStartFrame	OrigNumFrames
74.468085106383	74.468085106383	4	33	mm	74.468085106383	124	       141
Frame#	Time	Sacral			L.Shoulder			Chest			R.Shoulder			Neck			R.ASIS			L.ASIS			R.Thigh.Superior			R.Thigh.Lateral			R.Thigh.Inferior			R.Patella			L.Thigh.Superior			L.Thigh.Lateral			L.Thigh.Inferior			L.Patella			L.Shank.Superior			L.Shank.Lateral			L.Shank.Inferior			R.Shank.Superior			R.Shank.Lateral			R.Shank.Inferior			R.Heel			R.Midfoot.Superior			R.Midfoot.Lateral			R.Toe			L.Heel			L.Midfoot.Lateral			L.Midfoot.Superior			L.Toe			L.Elbow			L.Wrist			R.Elbow			R.Wrist			
		X1	Y1	Z1	X2	Y2	Z2	X3	Y3	Z3	X4	Y4	Z4	X5	Y5	Z5	X6	Y6	Z6	X7	Y7	Z7	X8	Y8	Z8	X9	Y9	Z9	X10	Y10	Z10	X11	Y11	Z11	X12	Y12	Z12	X13	Y13	Z13	X14	Y14	Z14	X15	Y15	Z15	X16	Y16	Z16	X17	Y17	Z17	X18	Y18	Z18	X19	Y19	Z19	X20	Y20	Z20	X21	Y21	Z21	X22	Y22	Z22	X23	Y23	Z23	X24	Y24	Z24	X25	Y25	Z25	X26	Y26	Z26	X27	Y27	Z27	X28	Y28	Z28	X29	Y29	Z29	X30	Y30	Z30	X31	Y31	Z31	X32	Y32	Z32	X33	Y33	Z33	

124	7.401714285714	540.308829316656	1006.572053436152	541.511171944882	686.152591497753	1425.605320712056	328.332274040980	817.450913314891	1352.429034466451	465.654920905039	774.203978121184	1433.310921535147	651.107794400179	717.820504661692	1486.744023718905	475.174069649601	776.940401104555	929.873395347115	619.862259629697	722.847486999903	951.926727036571	350.058690286663	767.884535567867	717.936546139377	590.448228543759	664.782400240106	626.186572013309	656.658917502944	715.379091638874	561.007057116428	570.854010309663	694.843786964350	477.170258163063	573.379146845297	797.994375754001	767.686583584027	377.530595372148	737.987639753043	637.322026281852	312.194378256149	842.160155205351	576.971621304216	369.126461341633	867.815280391878	513.536193144620	368.350204135551	854.074766506626	442.531249108463	360.244811403567	792.327048353560	308.903990319970	314.926939582822	885.799266805493	215.635659113768	369.453099455496	655.839698249521	395.181804742107	579.512119974233	576.893024325284	298.386530689147	641.586447175754	602.113708619345	202.160421786176	572.367558772465	449.682946768725	44.729906120038	541.206794734097	623.042187898056	96.075326133679	573.270812877548	534.297611327624	36.265465602930	613.815626410838	742.465370700391	40.537778974088	599.546391657718	809.266943099103	36.783295761714	412.803928139666	881.361046439133	42.280037682746	331.370514664093	950.847686861846	119.365736917329	350.185142632997	1083.915018904142	92.023063472906	322.280070976262	543.153768148751	1093.200415530688	254.590736346230	526.616807699550	832.492169240984	262.982693472041	918.261282159488	1127.722803826039	750.063205096644	1118.792620039239	1219.526890125283	634.935444905939	
125	7.415142857143	541.567873525649	1005.528868032730	539.614541265501	686.245651927753	1424.378668932934	326.252954051964	817.748625034409	1351.692453500174	463.607894655235	774.263753993364	1432.516173186364	649.015356732749	717.773452856893	1485.724703654468	473.034585598883	777.986772860164	929.126188953641	619.085081807037	724.771710280152	950.135532191086	348.985021813114	767.580573552360	716.808018131298	590.376831334899	663.188241519613	625.804712378359	656.133971889615	713.727545666869	559.985848313229	570.835421015803	692.435730234312	476.043928172437	573.211455682541	799.808525084176	765.716788806003	376.786765464561	738.364661158148	635.058384628896	312.576865253907	842.795167960889	574.938750446769	369.051939408759	867.625436206692	510.911448699403	369.086277146635	853.507512192072	439.676024595367	361.210785109909	790.369580614009	306.657816491720	316.283980069613	882.479515283499	212.495891326237	371.252196417067	652.472565692163	394.563896595978	579.360370497536	572.440020976214	298.680996668792	641.534964100253	596.689865343917	202.054687424450	572.478826305170	442.999067834709	45.331700381620	541.450227291888	616.497173798100	96.073302975748	573.407909108950	527.643581560239	36.392343611277	613.879696849426	735.829710852981	40.186654579474	599.617504729327	802.361615040046	36.631600390102	414.402635182940	874.711480401678	40.485063752631	333.035249580589	946.747950279238	114.678406841760	352.792246452398	1078.978907806989	82.899667442131	324.853474517770	542.989603532452	1092.133262552794	253.006521597364	527.125476184968	831.303675401889	261.782907649427	920.330841220377	1127.434436230946	746.374789937510	1119.110651092400	1221.854852182198	630.316832590238	
126	7.428571428571	542.848245944813	1004.575790501395	537.505430598580	686.550904383116	1423.210359930552	324.054931562232	818.180557473677	1351.018699933695	461.535483277435	774.354593099362	1431.802361772435	646.880790889912	717.867586147937	1484.799939032851	470.771828893140	779.050493181696	928.364576024907	618.231087445597	726.839531170055	948.530051342609	347.848902270044	767.462843216092	715.735563984078	590.192838484995	661.841402786938	625.447073104809	655.436177971706	712.400923398481	559.001201718108	570.635186196663	690.345598783598	474.893885805224	572.856308642330	801.726982162547	763.896047177351	376.192206280986	739.259851402752	633.187175847662	312.624995065906	843.670012236339	573.240731133867	369.180486740148	867.614862942977	508.548239226737	369.882878844905	853.166351156065	437.068476026215	362.010995953417	788.684973726557	304.742986197130	317.122437264658	879.144958490351	209.542442010543	372.727357626729	649.395374268344	393.916908489634	579.065688829878	568.181978014255	299.056571183936	641.385669476591	591.399978205565	201.990523563070	572.559732135051	436.341874357931	46.111089925961	541.740094246568	610.014053835581	96.103394969640	573.561079055542	521.019376280524	36.592941366885	613.971419006046	729.223840940161	39.816599029415	599.687381226695	795.188997229584	36.570892786133	415.463856216547	867.896773736875	38.864785984988	334.247999661121	942.403440253392	110.226684698827	355.068163593309	1073.830947313381	74.115910781125	327.262085770649	543.423599698828	1090.935650969765	251.082323710170	528.690703361060	829.924563436815	260.120931308282	921.666372392552	1126.817986716436	743.055959322085	1119.338672141691	1222.797169258820	626.100454553919	
127	7.442000000000	544.103777027111	1003.775852046948	535.215656239602	687.087649243442	1422.166892810466	321.763777583676	818.756724554727	1350.442010456949	459.454856764563	774.518706482112	1431.215768449699	644.720090845894	718.140058032450	1484.023493382393	468.408882551425	780.093622626076	927.633372072710	617.249767266841	728.956510364280	947.212589804782	346.617130545019	767.523647262577	714.773986370694	589.823523330980	660.789470156349	625.142243504934	654.532581102990	711.439095790249	558.096075791974	570.204530462340	688.615754939267	473.749595371647	572.282602951984	803.696801519050	762.374306591361	375.746894893025	740.705168974874	631.824773564953	312.324457332005	844.822243133978	572.003335120064	369.468400064624	867.829811684590	506.567205198830	370.673858312837	853.092554981351	434.830046967254	362.610086545170	787.351234487283	303.271568408099	317.426992039423	875.891896940779	206.934375901392	373.848841927466	646.647697387038	393.264543065357	578.612159964426	564.159142477503	299.549867677371	641.127496177039	586.277284432780	202.001093422587	572.611719045611	429.728311044535	47.131868289187	542.080882081267	603.623294031938	96.185727482172	573.745969887450	514.435705117837	36.900704086237	614.099186397171	722.652831836796	39.431957190232	599.755306317177	788.044275874736	36.604743495641	416.052913360003	861.147569911861	37.512688230211	335.030850370047	937.884620129372	106.283905173655	356.924747582610	1068.573807103684	66.229377096963	329.351507140284	544.488460994134	1089.665132960522	248.849904663297	531.285347327834	828.422474894600	258.000971942936	922.275203584488	1125.896579019918	740.126839614896	1119.557007464542	1222.310703815720	622.332051070484	
